<svg width="48" height="48" viewBox="0 0 48 48" fill="none" xmlns="http://www.w3.org/2000/svg">
<g id="User Interface / Cancel">
<path id="Vector" d="M26.82 24.0004L35.42 15.4204C35.7966 15.0438 36.0082 14.533 36.0082 14.0004C36.0082 13.4678 35.7966 12.957 35.42 12.5804C35.0434 12.2038 34.5326 11.9922 34 11.9922C33.4674 11.9922 32.9566 12.2038 32.58 12.5804L24 21.1804L15.42 12.5804C15.0434 12.2038 14.5326 11.9922 14 11.9922C13.4674 11.9922 12.9566 12.2038 12.58 12.5804C12.2034 12.957 11.9918 13.4678 11.9918 14.0004C11.9918 14.533 12.2034 15.0438 12.58 15.4204L21.18 24.0004L12.58 32.5804C12.3925 32.7663 12.2438 32.9875 12.1422 33.2312C12.0407 33.4749 11.9884 33.7363 11.9884 34.0004C11.9884 34.2644 12.0407 34.5258 12.1422 34.7695C12.2438 35.0132 12.3925 35.2344 12.58 35.4204C12.7659 35.6078 12.9871 35.7566 13.2308 35.8582C13.4746 35.9597 13.736 36.012 14 36.012C14.264 36.012 14.5254 35.9597 14.7692 35.8582C15.0129 35.7566 15.2341 35.6078 15.42 35.4204L24 26.8204L32.58 35.4204C32.7659 35.6078 32.9871 35.7566 33.2308 35.8582C33.4746 35.9597 33.736 36.012 34 36.012C34.264 36.012 34.5254 35.9597 34.7692 35.8582C35.0129 35.7566 35.2341 35.6078 35.42 35.4204C35.6075 35.2344 35.7562 35.0132 35.8578 34.7695C35.9593 34.5258 36.0116 34.2644 36.0116 34.0004C36.0116 33.7363 35.9593 33.4749 35.8578 33.2312C35.7562 32.9875 35.6075 32.7663 35.42 32.5804L26.82 24.0004Z" fill="#4097E9"/>
<rect x="1" y="1" width="46" height="46" rx="3" stroke="#4097E9" stroke-width="2"/>
</g>
</svg>
